# xmcd
#
# Track frame offsets:
#	150
#	23735
#	45041
#	62407
#	75380
#	86779
#	104364
#	129922
#	141715
#	157844
#	173918
#	198955
#
# Disc length: 2837 seconds
#
# Revision: 1
# Processed by: cddbd v1.5.2PL0 Copyright (c) Steve Scherf et al.
# Submitted via: audiograbber 1.83.01
#
DISCID=8c0b130c
DTITLE=Edu and Shortie - Lagu Lagu Kenangan Manis
DYEAR=1900
DGENRE=Country
TTITLE0=Hancur Berkeping
TTITLE1=Aku Beguni Kau Begitu
TTITLE2=Kampung Halaman
TTITLE3=Saling Percaya
TTITLE4=Ku Di Bilang
TTITLE5=Mama Buat Hati
TTITLE6=Cinta Abdi
TTITLE7=Begawan Solo
TTITLE8=Hapus Air Matamu
TTITLE9=Rekakan Aku
TTITLE10=Mimpi Memory Manis
TTITLE11=Desember Kelabu
EXTD=
EXTT0=
EXTT1=
EXTT2=
EXTT3=
EXTT4=
EXTT5=
EXTT6=
EXTT7=
EXTT8=
EXTT9=
EXTT10=
EXTT11=
PLAYORDER=
